# xmcd
#
# Track frame offsets:
#	150
#	12148
#	27736
#	53467
#	71885
#	82671
#	97625
#	110956
#	124305
#	143123
#
# Disc length: 2211 seconds
#
# Revision: 1
# Processed by: cddbd v1.5.1PL0 Copyright (c) Steve Scherf et al.
# Submitted via: audiograbber 1.83.01
#
DISCID=7f08a10a
DTITLE=Howlin' Wolf - London Sessions Outtakes - 4-7-70
DYEAR=1970
DGENRE=Blues
TTITLE0=Who's Been Talking 
TTITLE1=The Killing Floor
TTITLE2=Red Rooster
TTITLE3=Poor Boy
TTITLE4=Built for Comfort
TTITLE5=Do the do
TTITLE6=Highway 49
TTITLE7=Worried About My Baby
TTITLE8=What a Woman
TTITLE9=Wang Dang Doodle
EXTD=
EXTT0=
EXTT1=
EXTT2=
EXTT3=
EXTT4=
EXTT5=
EXTT6=
EXTT7=
EXTT8=
EXTT9=
PLAYORDER=
